<svg xmlns="http://www.w3.org/2000/svg" viewBox="0 0 284.41 179.68"><defs><style>.cls-1{fill:#fff;}</style></defs><g id="Layer_2" data-name="Layer 2"><g id="Layer_1-2" data-name="Layer 1"><path class="cls-1" d="M12.72,133.07,0,131.56s3-16,6.18-36.56c1.2-7.79,2.47-16.08,3.49-24.48S11.31,53.63,12,45.88s2.75-37,2.75-37L33.36,5.83s3.16,17.1,8.23,38.68c1.86,8.14,3.9,16.9,6.55,25.47s5.8,17,8.63,24.79c7.9,20.82,15,36.56,15,36.56l-24.5,7.6s-2.78-15.62-7.48-35.84C38.88,103,38,103,37,103a48.86,48.86,0,0,0-7.55,0A70.46,70.46,0,0,0,22,104.17c-3,.64-5.55,1.25-7.39,1.79C13.36,121.81,12.72,133.07,12.72,133.07ZM32.46,74.78c-2.66-8.58-5.92-17-8.88-24.77-.66-1.7-1.33-3.53-2-5.23-.06.76-.24,1.53-.31,2.17-1.2,7.78-2.47,16.08-3.48,24.48-1.06,7.9-1.74,15.89-2.34,23.25,1.65.1,3.54.18,5.69.24a47.69,47.69,0,0,0,7.55,0c2.49-.35,5.09-.83,7.44-1.29a4.94,4.94,0,0,1,1.36-.25C36,87.18,34.39,80.9,32.46,74.78Z"/><path class="cls-1" d="M98.66,102.59c1.76-9.14,3.75-19,5.08-29s2.16-20.05,2.88-29.33C108.37,19.37,108.72,0,108.72,0l26.59,3.56s-4.76,18.78-9.62,43.22c-1.75,9.14-3.61,19.07-5,29.06s-2,20.06-2.74,29.34c-.94,13.88-1.52,26.08-2,34.21.78.11,1.54.34,2.32.45,2.56.6,5.38,1.24,8.23,1.63l1.3.17c3.37.45,6.65.63,9.8.79,8.28.31,14.78.13,14.78.13l-1.78,13.23s-6.23-1.76-14.3-3.63a79.52,79.52,0,0,0-9.65-2c-3.24-.43-37.6-4.24-37.6-4.24S93.8,127,98.66,102.59Z"/><path class="cls-1" d="M193,23.49c21.09,0,19.55,14.36,20.28,29.93H201.38v-2C201.38,34.6,201.21,29,193,29c-8,0-10,7.38-10,24.41,0,18.41,30.17-1,30.17,27.65,0,1.38.08,2.84.08,4.22,0,14.44-2.6,26.44-21.82,26.44-15.49,0-20.19-8.6-20.19-25.63,0-1.62,0-3.24.08-4.95H183c-.09,2.92-.17,5.52-.17,7.87,0,12.73,1.95,17.19,8.92,17.19,10.3,0,9-9.48,9.66-25.06,0-18.16-30,2.11-30-27.73C171.37,33.31,176.15,23.49,193,23.49Z"/><path class="cls-1" d="M241.83,34.35c-7.11-1.39-12.74-2.11-12.74-2.11l3.29-11.13s5.11,2.46,11.84,5.16c2.58,1,5.31,2.05,8.11,2.88s5.75,1.46,8.38,2c7.19,1.42,12.81,2.13,12.81,2.13l-3.29,11.13s-5.1-2.46-11.91-5.19L257.7,39c-2.18,5.64-6,16-10.31,28.27-2.37,6.89-5,14.42-7.28,22l-.58,2c-2.06,7-3.82,14-5.41,20.58-4.65,19.15-7.65,34.16-7.65,34.16l-15.94-4.71s5.64-14.23,12.08-32.85c2.48-7,5-14.52,7.31-22.16s4.13-15.39,5.81-22.49c3.16-12.7,5.51-23.52,6.83-29.41C242.33,34.38,242.07,34.42,241.83,34.35Z"/><path class="cls-1" d="M94.26,78.33a17.48,17.48,0,0,1-.11,1.87c-.07.65-.38,1-.91.89L81.82,81c-3.81,0-7.64-.09-11.5-.2-.34,0-1,0-1.86,0l-2.89-.12-2.9-.17c-.9,0-1.52-.1-1.86-.16a.79.79,0,0,1-.55-.4,1.49,1.49,0,0,1-.18-.73C60,77.74,59.94,76.36,60,75s.08-2.7.18-4.06a1.36,1.36,0,0,1,.37-.73.81.81,0,0,1,.47-.16H93.46a.8.8,0,0,1,.8.53,2.28,2.28,0,0,1,.15,1.18c0,.21,0,.64,0,1.29s-.05,1.33-.07,2,0,1.37,0,2Z"/><path class="cls-1" d="M166.82,114.38c-.56-2.21-1.16-4.42-1.78-6.63s-1.2-4.43-1.78-6.64q-.24-1.11-.87-3.9c-.4-1.86-.88-4-1.41-6.36s-1.09-4.91-1.68-7.58l-1.67-7.59q-.81-3.57-1.41-6.36t-.87-3.9c-.15-.67-.43-2-.82-4s-.8-4.09-1.22-6.33-.84-4.35-1.27-6.33-.74-3.29-.88-4c-.08-.37-.17-.78-.28-1.23a9.84,9.84,0,0,0-.35-1.27,2,2,0,0,0-.57-.93,1.11,1.11,0,0,0-1-.23,4.83,4.83,0,0,0-1.17.06c-.61.07-1,.14-1.15.16l-2,.39c-1,.18-2,.41-3.1.65s-2.08.46-3,.64-1.6.32-1.91.37a1,1,0,0,0-.89.76,1.26,1.26,0,0,0,.18,1.13,33.2,33.2,0,0,0,.82,4.83c.54,2.39,1.1,4.93,1.7,7.65s1.21,5.26,1.81,7.62,1,4,1.21,4.89q1.88,7.89,3.73,15.67T149,101.64c.12.53.37,1.54.74,3.06l1.2,4.83c.42,1.7.81,3.31,1.2,4.83s.62,2.54.74,3a3.35,3.35,0,0,0,.19.61,1.93,1.93,0,0,0,.32.58,2,2,0,0,0,.93.57,1.08,1.08,0,0,0,1-.14,8.75,8.75,0,0,1,2-.72c.94-.26,2-.5,3.08-.71l3.17-.62,2.09-.4a1.29,1.29,0,0,0,.93-.88A2.1,2.1,0,0,0,166.82,114.38Z"/><path class="cls-1" d="M161.12,136.07l6.75-1.32-.47,3.7c-.31,2.49-2.5,3-3.94,1Z"/><path class="cls-1" d="M169.24,123.92l-.92,7.26-.16,1.26-3.15.61-5.28,1-.46-.66-4.2-6c-1.44-2.06-1-5.18.71-5.61l5.11-1.26,5.11-1.26C167.75,118.85,169.55,121.43,169.24,123.92Z"/><path class="cls-1" d="M172.25,150.55a64.69,64.69,0,0,1,10.8-3.8,36.59,36.59,0,0,1,4.94-1.08c1.28-.15,1.59.36,1.68,1.6.18,2.59-1.62,4.85-3.31,6.61-2.2,2.3-4.83,4.15-6.87,6.59s-3.9,5.52-4.15,8.9a9.05,9.05,0,0,0,4,8.09c2.5,1.73,5.72,2.16,8.69,2.21a93.56,93.56,0,0,0,10.58-.62,151.78,151.78,0,0,0,42.94-10.14c12.15-5,23.66-12.24,31-23.37,8.63-13,10.32-29.1,11.84-44.26a2.51,2.51,0,0,0-2.5-2.5,2.56,2.56,0,0,0-2.5,2.5c-1.31,13.08-2.7,26.83-9.2,38.52C264,151,253.31,158.38,241.81,163.41c-13,5.67-27.29,8.94-41.33,10.45-3.62.39-7.27.69-10.92.8-2.37.07-5.08.06-7.18-1.17-5.58-3.27,1.08-10.22,3.94-12.74,2.54-2.23,5.19-4.58,6.83-7.58s2.32-7.18.2-10.16c-2.73-3.82-7.88-2-11.63-1.08a72.9,72.9,0,0,0-12,4.3,2.52,2.52,0,0,0-.9,3.42,2.57,2.57,0,0,0,3.42.9Z"/></g></g></svg>