<svg xmlns="http://www.w3.org/2000/svg" viewBox="0 0 240.13 240.13"><defs><style>.cls-1{fill:#ef4748;}.cls-2{fill:#fff;}</style></defs><g id="Layer_2" data-name="Layer 2"><g id="Layer_1-2" data-name="Layer 1"><circle class="cls-1" cx="120.07" cy="120.07" r="120.07"/><path class="cls-2" d="M95.06,178.65,80.27,176.9s3.46-18.6,7.19-42.5c1.39-9.05,2.87-18.7,4.05-28.47,1-9.75,1.9-19.63,2.71-28.63s3.19-43,3.19-43l21.64-3.54s3.68,19.87,9.57,45c2.16,9.47,4.53,19.65,7.62,29.62s6.74,19.75,10,28.82c9.19,24.21,17.4,42.51,17.4,42.51l-28.48,8.83S132,167.31,126.5,143.8c-1-.06-2.06-.11-3.24-.15a57.13,57.13,0,0,0-8.77,0,84.27,84.27,0,0,0-8.67,1.35c-3.44.75-6.45,1.46-8.59,2.09C95.8,165.56,95.06,178.65,95.06,178.65ZM118,110.89c-3.08-10-6.88-19.73-10.32-28.79-.77-2-1.54-4.11-2.3-6.09-.07.88-.28,1.78-.36,2.52-1.39,9-2.87,18.7-4,28.46-1.23,9.19-2,18.48-2.72,27,1.92.12,4.12.22,6.62.29a56,56,0,0,0,8.77-.05c2.9-.41,5.92-1,8.65-1.5a5.86,5.86,0,0,1,1.59-.29C122.07,125.31,120.25,118,118,110.89Z"/><path class="cls-2" d="M95.39,206.75c2.2,0,4.41,0,6.62,0s4.42,0,6.63,0l3.85.15,6.27.26,7.48.31,7.49.31c2.35.09,4.44.17,6.28.26l3.84.15c.66,0,2,.1,3.91.22s4,.27,6.21.43,4.26.29,6.2.38,3.25.12,3.91.16l1.21,0a9.08,9.08,0,0,0,1.28,0,1.82,1.82,0,0,0,1-.31,1,1,0,0,0,.46-.86,4.77,4.77,0,0,0,.24-1.1c.08-.59.11-1,.13-1.12s.06-.95.12-1.93.13-2,.17-3,.08-2.06.15-3,.1-1.56.13-1.87a1,1,0,0,0-.49-1,1.22,1.22,0,0,0-1.1-.1,30.47,30.47,0,0,0-4.71-.43l-7.55-.31c-2.67-.11-5.19-.17-7.54-.2s-4,0-4.85-.07l-15.53-.41c-5.15-.12-10.33-.23-15.54-.28-.52,0-1.53,0-3-.07l-4.79-.07-4.8-.09L96,193a3.54,3.54,0,0,0-.61,0,2.16,2.16,0,0,0-.62.15,1.83,1.83,0,0,0-.76.73,1.07,1.07,0,0,0-.13,1,8.12,8.12,0,0,1,.19,2c0,.93,0,2-.1,3s-.14,2.13-.21,3.11-.12,1.66-.14,2.05a1.26,1.26,0,0,0,.59,1.08A2.13,2.13,0,0,0,95.39,206.75Z"/><path class="cls-2" d="M76.59,196.07c-.15,2.22-.29,4.42-.44,6.62l-3.33-1.36c-2.24-.9-2.2-3.07.07-3.91Z"/><path class="cls-2" d="M85.91,206.64,79.37,204l-1.13-.46c.06-1.05.14-2.08.2-3.09.13-1.85.25-3.58.35-5.17l.73-.27,6.63-2.43c2.27-.83,5.08.31,5,2.05l-.09,5.07L91,204.76C91,206.5,88.15,207.54,85.91,206.64Z"/></g></g></svg>